<mxfile host="app.diagrams.net" modified="2023-05-09T16:26:35.091Z" agent="Mozilla/5.0 (Windows NT 10.0; Win64; x64) AppleWebKit/537.36 (KHTML, like Gecko) Chrome/113.0.0.0 Safari/537.36" etag="wKtTGQn60L0U_VTqHXYu" version="21.2.9" type="device">
  <diagram name="Σελίδα-1" id="ZqoTahuAJs6s6TfEic_5">
    <mxGraphModel dx="2074" dy="1124" grid="0" gridSize="10" guides="1" tooltips="1" connect="1" arrows="1" fold="1" page="0" pageScale="1" pageWidth="827" pageHeight="583" math="0" shadow="0">
      <root>
        <mxCell id="0" />
        <mxCell id="1" parent="0" />
        <mxCell id="boM3i_70qFNJW87o85ij-21" value="" style="shape=umlLifeline;perimeter=lifelinePerimeter;whiteSpace=wrap;html=1;container=1;dropTarget=0;collapsible=0;recursiveResize=0;outlineConnect=0;portConstraint=eastwest;newEdgeStyle={&quot;edgeStyle&quot;:&quot;elbowEdgeStyle&quot;,&quot;elbow&quot;:&quot;vertical&quot;,&quot;curved&quot;:0,&quot;rounded&quot;:0};participant=umlActor;size=61;" vertex="1" parent="1">
          <mxGeometry x="17" y="24" width="43" height="954" as="geometry" />
        </mxCell>
        <mxCell id="boM3i_70qFNJW87o85ij-67" value="" style="html=1;points=[];perimeter=orthogonalPerimeter;outlineConnect=0;targetShapes=umlLifeline;portConstraint=eastwest;newEdgeStyle={&quot;edgeStyle&quot;:&quot;elbowEdgeStyle&quot;,&quot;elbow&quot;:&quot;vertical&quot;,&quot;curved&quot;:0,&quot;rounded&quot;:0};" vertex="1" parent="boM3i_70qFNJW87o85ij-21">
          <mxGeometry x="17" y="112" width="10" height="780" as="geometry" />
        </mxCell>
        <mxCell id="boM3i_70qFNJW87o85ij-22" value="Αρχικό μενού" style="shape=umlLifeline;perimeter=lifelinePerimeter;whiteSpace=wrap;html=1;container=1;dropTarget=0;collapsible=0;recursiveResize=0;outlineConnect=0;portConstraint=eastwest;newEdgeStyle={&quot;edgeStyle&quot;:&quot;elbowEdgeStyle&quot;,&quot;elbow&quot;:&quot;vertical&quot;,&quot;curved&quot;:0,&quot;rounded&quot;:0};participant=umlBoundary;size=58;" vertex="1" parent="1">
          <mxGeometry x="141" y="24" width="73" height="951" as="geometry" />
        </mxCell>
        <mxCell id="boM3i_70qFNJW87o85ij-68" value="" style="html=1;points=[];perimeter=orthogonalPerimeter;outlineConnect=0;targetShapes=umlLifeline;portConstraint=eastwest;newEdgeStyle={&quot;edgeStyle&quot;:&quot;elbowEdgeStyle&quot;,&quot;elbow&quot;:&quot;vertical&quot;,&quot;curved&quot;:0,&quot;rounded&quot;:0};" vertex="1" parent="boM3i_70qFNJW87o85ij-22">
          <mxGeometry x="31.5" y="119" width="10" height="32" as="geometry" />
        </mxCell>
        <mxCell id="boM3i_70qFNJW87o85ij-27" value="&lt;span style=&quot;white-space: pre;&quot;&gt;	&lt;/span&gt;Λίστα παικτών&lt;br&gt;&lt;span style=&quot;white-space: pre;&quot;&gt;	&lt;/span&gt;και πεδία&lt;br&gt;&lt;span style=&quot;white-space: pre;&quot;&gt;	&lt;/span&gt;κριτηρίων" style="shape=umlLifeline;perimeter=lifelinePerimeter;whiteSpace=wrap;html=1;container=1;dropTarget=0;collapsible=0;recursiveResize=0;outlineConnect=0;portConstraint=eastwest;newEdgeStyle={&quot;edgeStyle&quot;:&quot;elbowEdgeStyle&quot;,&quot;elbow&quot;:&quot;vertical&quot;,&quot;curved&quot;:0,&quot;rounded&quot;:0};participant=umlBoundary;size=90;" vertex="1" parent="1">
          <mxGeometry x="264" y="24" width="97" height="948" as="geometry" />
        </mxCell>
        <mxCell id="boM3i_70qFNJW87o85ij-69" value="" style="html=1;points=[];perimeter=orthogonalPerimeter;outlineConnect=0;targetShapes=umlLifeline;portConstraint=eastwest;newEdgeStyle={&quot;edgeStyle&quot;:&quot;elbowEdgeStyle&quot;,&quot;elbow&quot;:&quot;vertical&quot;,&quot;curved&quot;:0,&quot;rounded&quot;:0};" vertex="1" parent="boM3i_70qFNJW87o85ij-27">
          <mxGeometry x="43.5" y="146" width="10" height="464" as="geometry" />
        </mxCell>
        <mxCell id="boM3i_70qFNJW87o85ij-28" value="Τελική ενημερωμένη λίστα" style="shape=umlLifeline;perimeter=lifelinePerimeter;whiteSpace=wrap;html=1;container=1;dropTarget=0;collapsible=0;recursiveResize=0;outlineConnect=0;portConstraint=eastwest;newEdgeStyle={&quot;edgeStyle&quot;:&quot;elbowEdgeStyle&quot;,&quot;elbow&quot;:&quot;vertical&quot;,&quot;curved&quot;:0,&quot;rounded&quot;:0};participant=umlBoundary;size=58;" vertex="1" parent="1">
          <mxGeometry x="406" y="24" width="101" height="954" as="geometry" />
        </mxCell>
        <mxCell id="boM3i_70qFNJW87o85ij-70" value="" style="html=1;points=[];perimeter=orthogonalPerimeter;outlineConnect=0;targetShapes=umlLifeline;portConstraint=eastwest;newEdgeStyle={&quot;edgeStyle&quot;:&quot;elbowEdgeStyle&quot;,&quot;elbow&quot;:&quot;vertical&quot;,&quot;curved&quot;:0,&quot;rounded&quot;:0};" vertex="1" parent="boM3i_70qFNJW87o85ij-28">
          <mxGeometry x="45.5" y="477" width="10" height="399" as="geometry" />
        </mxCell>
        <mxCell id="boM3i_70qFNJW87o85ij-29" value="Κριτήρια&lt;br&gt;αξιολόγισης" style="shape=umlLifeline;perimeter=lifelinePerimeter;whiteSpace=wrap;html=1;container=1;dropTarget=0;collapsible=0;recursiveResize=0;outlineConnect=0;portConstraint=eastwest;newEdgeStyle={&quot;edgeStyle&quot;:&quot;elbowEdgeStyle&quot;,&quot;elbow&quot;:&quot;vertical&quot;,&quot;curved&quot;:0,&quot;rounded&quot;:0};participant=umlEntity;size=74;" vertex="1" parent="1">
          <mxGeometry x="547" y="24" width="86" height="960" as="geometry" />
        </mxCell>
        <mxCell id="boM3i_70qFNJW87o85ij-71" value="" style="html=1;points=[];perimeter=orthogonalPerimeter;outlineConnect=0;targetShapes=umlLifeline;portConstraint=eastwest;newEdgeStyle={&quot;edgeStyle&quot;:&quot;elbowEdgeStyle&quot;,&quot;elbow&quot;:&quot;vertical&quot;,&quot;curved&quot;:0,&quot;rounded&quot;:0};" vertex="1" parent="boM3i_70qFNJW87o85ij-29">
          <mxGeometry x="38" y="356" width="10" height="25" as="geometry" />
        </mxCell>
        <mxCell id="boM3i_70qFNJW87o85ij-30" value="Pop up&amp;nbsp;&lt;br&gt;πίστωσης&lt;br&gt;AP" style="shape=umlLifeline;perimeter=lifelinePerimeter;whiteSpace=wrap;html=1;container=1;dropTarget=0;collapsible=0;recursiveResize=0;outlineConnect=0;portConstraint=eastwest;newEdgeStyle={&quot;edgeStyle&quot;:&quot;elbowEdgeStyle&quot;,&quot;elbow&quot;:&quot;vertical&quot;,&quot;curved&quot;:0,&quot;rounded&quot;:0};participant=umlBoundary;size=90;" vertex="1" parent="1">
          <mxGeometry x="673" y="24" width="97" height="963" as="geometry" />
        </mxCell>
        <mxCell id="boM3i_70qFNJW87o85ij-72" value="" style="html=1;points=[];perimeter=orthogonalPerimeter;outlineConnect=0;targetShapes=umlLifeline;portConstraint=eastwest;newEdgeStyle={&quot;edgeStyle&quot;:&quot;elbowEdgeStyle&quot;,&quot;elbow&quot;:&quot;vertical&quot;,&quot;curved&quot;:0,&quot;rounded&quot;:0};" vertex="1" parent="boM3i_70qFNJW87o85ij-30">
          <mxGeometry x="43.5" y="721" width="10" height="156" as="geometry" />
        </mxCell>
        <mxCell id="boM3i_70qFNJW87o85ij-31" value="Σελίδα βαθμολογίας&amp;nbsp;&lt;br&gt;και στοιχείων" style="shape=umlLifeline;perimeter=lifelinePerimeter;whiteSpace=wrap;html=1;container=1;dropTarget=0;collapsible=0;recursiveResize=0;outlineConnect=0;portConstraint=eastwest;newEdgeStyle={&quot;edgeStyle&quot;:&quot;elbowEdgeStyle&quot;,&quot;elbow&quot;:&quot;vertical&quot;,&quot;curved&quot;:0,&quot;rounded&quot;:0};participant=umlBoundary;size=90;" vertex="1" parent="1">
          <mxGeometry x="829" y="24" width="109" height="967" as="geometry" />
        </mxCell>
        <mxCell id="boM3i_70qFNJW87o85ij-73" value="" style="html=1;points=[];perimeter=orthogonalPerimeter;outlineConnect=0;targetShapes=umlLifeline;portConstraint=eastwest;newEdgeStyle={&quot;edgeStyle&quot;:&quot;elbowEdgeStyle&quot;,&quot;elbow&quot;:&quot;vertical&quot;,&quot;curved&quot;:0,&quot;rounded&quot;:0};" vertex="1" parent="boM3i_70qFNJW87o85ij-31">
          <mxGeometry x="49.5" y="232" width="10" height="69" as="geometry" />
        </mxCell>
        <mxCell id="boM3i_70qFNJW87o85ij-32" value="PressPrat()" style="html=1;verticalAlign=bottom;endArrow=block;edgeStyle=elbowEdgeStyle;elbow=vertical;curved=0;rounded=0;" edge="1" parent="1" source="boM3i_70qFNJW87o85ij-21" target="boM3i_70qFNJW87o85ij-22">
          <mxGeometry width="80" relative="1" as="geometry">
            <mxPoint x="373" y="298" as="sourcePoint" />
            <mxPoint x="453" y="298" as="targetPoint" />
            <Array as="points">
              <mxPoint x="98" y="142" />
            </Array>
          </mxGeometry>
        </mxCell>
        <mxCell id="boM3i_70qFNJW87o85ij-34" value="Display()" style="html=1;verticalAlign=bottom;endArrow=block;edgeStyle=elbowEdgeStyle;elbow=vertical;curved=0;rounded=0;" edge="1" parent="1" source="boM3i_70qFNJW87o85ij-22" target="boM3i_70qFNJW87o85ij-27">
          <mxGeometry width="80" relative="1" as="geometry">
            <mxPoint x="373" y="298" as="sourcePoint" />
            <mxPoint x="453" y="298" as="targetPoint" />
            <Array as="points">
              <mxPoint x="231" y="175" />
            </Array>
          </mxGeometry>
        </mxCell>
        <mxCell id="boM3i_70qFNJW87o85ij-36" value="SelectPL()" style="html=1;verticalAlign=bottom;endArrow=block;edgeStyle=elbowEdgeStyle;elbow=vertical;curved=0;rounded=0;" edge="1" parent="1" source="boM3i_70qFNJW87o85ij-21" target="boM3i_70qFNJW87o85ij-27">
          <mxGeometry width="80" relative="1" as="geometry">
            <mxPoint x="373" y="298" as="sourcePoint" />
            <mxPoint x="453" y="298" as="targetPoint" />
            <Array as="points">
              <mxPoint x="221" y="429" />
            </Array>
          </mxGeometry>
        </mxCell>
        <mxCell id="boM3i_70qFNJW87o85ij-38" value="Aproof()" style="html=1;verticalAlign=bottom;endArrow=open;dashed=1;endSize=8;edgeStyle=elbowEdgeStyle;elbow=vertical;curved=0;rounded=0;" edge="1" parent="1" source="boM3i_70qFNJW87o85ij-28" target="boM3i_70qFNJW87o85ij-21">
          <mxGeometry x="-0.0096" y="2" relative="1" as="geometry">
            <mxPoint x="453" y="298" as="sourcePoint" />
            <mxPoint x="373" y="298" as="targetPoint" />
            <Array as="points">
              <mxPoint x="349" y="685" />
              <mxPoint x="237" y="384" />
            </Array>
            <mxPoint as="offset" />
          </mxGeometry>
        </mxCell>
        <mxCell id="boM3i_70qFNJW87o85ij-39" value="Submit()" style="html=1;verticalAlign=bottom;endArrow=block;edgeStyle=elbowEdgeStyle;elbow=vertical;curved=0;rounded=0;" edge="1" parent="1" source="boM3i_70qFNJW87o85ij-21" target="boM3i_70qFNJW87o85ij-28">
          <mxGeometry width="80" relative="1" as="geometry">
            <mxPoint x="373" y="298" as="sourcePoint" />
            <mxPoint x="453" y="298" as="targetPoint" />
            <Array as="points">
              <mxPoint x="364" y="708" />
            </Array>
          </mxGeometry>
        </mxCell>
        <mxCell id="boM3i_70qFNJW87o85ij-42" value="procandshow(criteria)" style="html=1;verticalAlign=bottom;endArrow=block;edgeStyle=elbowEdgeStyle;elbow=vertical;curved=0;rounded=0;" edge="1" parent="1" source="boM3i_70qFNJW87o85ij-28" target="boM3i_70qFNJW87o85ij-30">
          <mxGeometry x="0.0038" width="80" relative="1" as="geometry">
            <mxPoint x="373" y="298" as="sourcePoint" />
            <mxPoint x="453" y="298" as="targetPoint" />
            <Array as="points">
              <mxPoint x="613" y="749" />
            </Array>
            <mxPoint as="offset" />
          </mxGeometry>
        </mxCell>
        <mxCell id="boM3i_70qFNJW87o85ij-43" value="RetMessOApr()" style="html=1;verticalAlign=bottom;endArrow=open;dashed=1;endSize=8;edgeStyle=elbowEdgeStyle;elbow=vertical;curved=0;rounded=0;" edge="1" parent="1" source="boM3i_70qFNJW87o85ij-30" target="boM3i_70qFNJW87o85ij-21">
          <mxGeometry x="-0.0307" relative="1" as="geometry">
            <mxPoint x="453" y="298" as="sourcePoint" />
            <mxPoint x="373" y="298" as="targetPoint" />
            <Array as="points">
              <mxPoint x="539" y="800" />
            </Array>
            <mxPoint as="offset" />
          </mxGeometry>
        </mxCell>
        <mxCell id="boM3i_70qFNJW87o85ij-44" value="EVok()" style="html=1;verticalAlign=bottom;endArrow=block;edgeStyle=elbowEdgeStyle;elbow=vertical;curved=0;rounded=0;" edge="1" parent="1" source="boM3i_70qFNJW87o85ij-21" target="boM3i_70qFNJW87o85ij-30">
          <mxGeometry x="-0.0015" y="-2" width="80" relative="1" as="geometry">
            <mxPoint x="373" y="298" as="sourcePoint" />
            <mxPoint x="453" y="298" as="targetPoint" />
            <Array as="points">
              <mxPoint x="486" y="837" />
            </Array>
            <mxPoint as="offset" />
          </mxGeometry>
        </mxCell>
        <mxCell id="boM3i_70qFNJW87o85ij-46" value="rettoLandRL(obj:player)" style="html=1;verticalAlign=bottom;endArrow=open;dashed=1;endSize=8;edgeStyle=elbowEdgeStyle;elbow=vertical;curved=0;rounded=0;" edge="1" parent="1" source="boM3i_70qFNJW87o85ij-30" target="boM3i_70qFNJW87o85ij-28">
          <mxGeometry relative="1" as="geometry">
            <mxPoint x="453" y="298" as="sourcePoint" />
            <mxPoint x="373" y="298" as="targetPoint" />
            <Array as="points">
              <mxPoint x="664" y="893" />
            </Array>
          </mxGeometry>
        </mxCell>
        <mxCell id="boM3i_70qFNJW87o85ij-47" value="ALTERNATIVE" style="shape=umlFrame;whiteSpace=wrap;html=1;pointerEvents=0;" vertex="1" parent="1">
          <mxGeometry x="34" y="527" width="419" height="125" as="geometry" />
        </mxCell>
        <mxCell id="boM3i_70qFNJW87o85ij-51" value="Ακυρώνει" style="text;html=1;align=center;verticalAlign=middle;resizable=0;points=[];autosize=1;strokeColor=none;fillColor=none;" vertex="1" parent="1">
          <mxGeometry x="80" y="546" width="69" height="26" as="geometry" />
        </mxCell>
        <mxCell id="boM3i_70qFNJW87o85ij-52" value="Aproof()" style="html=1;verticalAlign=bottom;endArrow=open;dashed=1;endSize=8;edgeStyle=elbowEdgeStyle;elbow=vertical;curved=0;rounded=0;" edge="1" parent="1" source="boM3i_70qFNJW87o85ij-28" target="boM3i_70qFNJW87o85ij-21">
          <mxGeometry x="0.0335" y="-3" relative="1" as="geometry">
            <mxPoint x="466" y="418" as="sourcePoint" />
            <mxPoint x="48" y="418" as="targetPoint" />
            <Array as="points">
              <mxPoint x="214" y="575" />
            </Array>
            <mxPoint as="offset" />
          </mxGeometry>
        </mxCell>
        <mxCell id="boM3i_70qFNJW87o85ij-53" value="Decline()" style="html=1;verticalAlign=bottom;endArrow=block;edgeStyle=elbowEdgeStyle;elbow=vertical;curved=0;rounded=0;" edge="1" parent="1" source="boM3i_70qFNJW87o85ij-21" target="boM3i_70qFNJW87o85ij-28">
          <mxGeometry width="80" relative="1" as="geometry">
            <mxPoint x="48" y="444" as="sourcePoint" />
            <mxPoint x="466" y="444" as="targetPoint" />
            <Array as="points">
              <mxPoint x="330" y="600" />
            </Array>
          </mxGeometry>
        </mxCell>
        <mxCell id="boM3i_70qFNJW87o85ij-54" value="returntoL(obj:player)" style="html=1;verticalAlign=bottom;endArrow=open;dashed=1;endSize=8;edgeStyle=elbowEdgeStyle;elbow=vertical;curved=0;rounded=0;" edge="1" parent="1" source="boM3i_70qFNJW87o85ij-28" target="boM3i_70qFNJW87o85ij-27">
          <mxGeometry relative="1" as="geometry">
            <mxPoint x="453" y="498" as="sourcePoint" />
            <mxPoint x="373" y="498" as="targetPoint" />
            <Array as="points">
              <mxPoint x="372" y="630" />
            </Array>
          </mxGeometry>
        </mxCell>
        <mxCell id="boM3i_70qFNJW87o85ij-55" value="Player" style="text;html=1;align=center;verticalAlign=middle;resizable=0;points=[];autosize=1;strokeColor=none;fillColor=none;" vertex="1" parent="1">
          <mxGeometry x="12.5" y="75" width="52" height="26" as="geometry" />
        </mxCell>
        <mxCell id="boM3i_70qFNJW87o85ij-56" value="ALTERNATIVE" style="shape=umlFrame;whiteSpace=wrap;html=1;pointerEvents=0;" vertex="1" parent="1">
          <mxGeometry x="36" y="190" width="848" height="153" as="geometry" />
        </mxCell>
        <mxCell id="boM3i_70qFNJW87o85ij-58" value="Επιλογη&lt;br&gt;βαθμολόγισης" style="text;html=1;align=center;verticalAlign=middle;resizable=0;points=[];autosize=1;strokeColor=none;fillColor=none;" vertex="1" parent="1">
          <mxGeometry x="32" y="215" width="93" height="41" as="geometry" />
        </mxCell>
        <mxCell id="boM3i_70qFNJW87o85ij-60" value="PressRateP()" style="html=1;verticalAlign=bottom;endArrow=block;edgeStyle=elbowEdgeStyle;elbow=vertical;curved=0;rounded=0;" edge="1" parent="1" source="boM3i_70qFNJW87o85ij-21" target="boM3i_70qFNJW87o85ij-27">
          <mxGeometry x="-0.0219" width="80" relative="1" as="geometry">
            <mxPoint x="373" y="530" as="sourcePoint" />
            <mxPoint x="453" y="530" as="targetPoint" />
            <Array as="points">
              <mxPoint x="142" y="254" />
            </Array>
            <mxPoint as="offset" />
          </mxGeometry>
        </mxCell>
        <mxCell id="boM3i_70qFNJW87o85ij-61" value="Display()" style="html=1;verticalAlign=bottom;endArrow=block;edgeStyle=elbowEdgeStyle;elbow=vertical;curved=0;rounded=0;" edge="1" parent="1" source="boM3i_70qFNJW87o85ij-27" target="boM3i_70qFNJW87o85ij-31">
          <mxGeometry width="80" relative="1" as="geometry">
            <mxPoint x="373" y="530" as="sourcePoint" />
            <mxPoint x="453" y="530" as="targetPoint" />
            <Array as="points">
              <mxPoint x="558" y="266" />
            </Array>
          </mxGeometry>
        </mxCell>
        <mxCell id="boM3i_70qFNJW87o85ij-62" value="PressRet()" style="html=1;verticalAlign=bottom;endArrow=block;edgeStyle=elbowEdgeStyle;elbow=vertical;curved=0;rounded=0;" edge="1" parent="1" source="boM3i_70qFNJW87o85ij-21" target="boM3i_70qFNJW87o85ij-31">
          <mxGeometry x="0.0012" width="80" relative="1" as="geometry">
            <mxPoint x="373" y="530" as="sourcePoint" />
            <mxPoint x="453" y="530" as="targetPoint" />
            <Array as="points">
              <mxPoint x="394" y="284" />
            </Array>
            <mxPoint as="offset" />
          </mxGeometry>
        </mxCell>
        <mxCell id="boM3i_70qFNJW87o85ij-63" value="RetPtoL(obj:player)" style="html=1;verticalAlign=bottom;endArrow=open;dashed=1;endSize=8;edgeStyle=elbowEdgeStyle;elbow=vertical;curved=0;rounded=0;" edge="1" parent="1" source="boM3i_70qFNJW87o85ij-31" target="boM3i_70qFNJW87o85ij-27">
          <mxGeometry relative="1" as="geometry">
            <mxPoint x="453" y="530" as="sourcePoint" />
            <mxPoint x="373" y="530" as="targetPoint" />
            <Array as="points">
              <mxPoint x="541" y="318" />
            </Array>
          </mxGeometry>
        </mxCell>
        <mxCell id="boM3i_70qFNJW87o85ij-64" value="Display()" style="html=1;verticalAlign=bottom;endArrow=block;edgeStyle=elbowEdgeStyle;elbow=vertical;curved=0;rounded=0;" edge="1" parent="1" source="boM3i_70qFNJW87o85ij-27" target="boM3i_70qFNJW87o85ij-29">
          <mxGeometry width="80" relative="1" as="geometry">
            <mxPoint x="375" y="511" as="sourcePoint" />
            <mxPoint x="455" y="511" as="targetPoint" />
            <Array as="points">
              <mxPoint x="400" y="388" />
              <mxPoint x="382" y="384" />
              <mxPoint x="368" y="400" />
            </Array>
          </mxGeometry>
        </mxCell>
        <mxCell id="boM3i_70qFNJW87o85ij-65" value="Display()" style="html=1;verticalAlign=bottom;endArrow=block;edgeStyle=elbowEdgeStyle;elbow=vertical;curved=0;rounded=0;" edge="1" parent="1" source="boM3i_70qFNJW87o85ij-27" target="boM3i_70qFNJW87o85ij-28">
          <mxGeometry width="80" relative="1" as="geometry">
            <mxPoint x="377" y="611" as="sourcePoint" />
            <mxPoint x="457" y="611" as="targetPoint" />
            <Array as="points">
              <mxPoint x="370" y="505" />
            </Array>
          </mxGeometry>
        </mxCell>
      </root>
    </mxGraphModel>
  </diagram>
</mxfile>
